<svg width="32" height="32" viewBox="0 0 32 32" fill="none" xmlns="http://www.w3.org/2000/svg">
<mask id="mask0_heart" style="mask-type:alpha" maskUnits="userSpaceOnUse" x="0" y="0" width="32" height="32">
<rect width="32" height="32" fill="#D9D9D9"/>
</mask>
<g mask="url(#mask0_heart)">
<path d="M16 27.9999L14.0667 26.2665C11.8222 24.2443 9.96667 22.4999 8.5 21.0332C7.03333 19.5665 5.86667 18.2499 5 17.0832C4.13333 15.9165 3.52778 14.8443 3.18333 13.8665C2.83889 12.8888 2.66667 11.8888 2.66667 10.8665C2.66667 8.77765 3.36667 7.0332 4.76667 5.6332C6.16667 4.2332 7.91111 3.5332 10 3.5332C11.1556 3.5332 12.2556 3.77765 13.3 4.26654C14.3444 4.75543 15.2444 5.44431 16 6.3332C16.7556 5.44431 17.6556 4.75543 18.7 4.26654C19.7444 3.77765 20.8444 3.5332 22 3.5332C24.0889 3.5332 25.8333 4.2332 27.2333 5.6332C28.6333 7.0332 29.3333 8.77765 29.3333 10.8665C29.3333 11.8888 29.1611 12.8888 28.8167 13.8665C28.4722 14.8443 27.8667 15.9165 27 17.0832C26.1333 18.2499 24.9667 19.5665 23.5 21.0332C22.0333 22.4999 20.1778 24.2443 17.9333 26.2665L16 27.9999ZM16 24.3999C18.1333 22.4888 19.8889 20.8499 21.2667 19.4832C22.6444 18.1165 23.7333 16.9276 24.5333 15.9165C25.3333 14.9054 25.8889 14.0054 26.2 13.2165C26.5111 12.4276 26.6667 11.6443 26.6667 10.8665C26.6667 9.5332 26.2222 8.42209 25.3333 7.5332C24.4444 6.64431 23.3333 6.19987 22 6.19987C20.9556 6.19987 19.9889 6.49431 19.1 7.0832C18.2111 7.67209 17.6 8.42209 17.2667 9.3332H14.7333C14.4 8.42209 13.7889 7.67209 12.9 7.0832C12.0111 6.49431 11.0444 6.19987 10 6.19987C8.66667 6.19987 7.55556 6.64431 6.66667 7.5332C5.77778 8.42209 5.33333 9.5332 5.33333 10.8665C5.33333 11.6443 5.48889 12.4276 5.8 13.2165C6.11111 14.0054 6.66667 14.9054 7.46667 15.9165C8.26667 16.9276 9.35556 18.1165 10.7333 19.4832C12.1111 20.8499 13.8667 22.4888 16 24.3999Z" fill="#202124"/>
</g>
</svg>
