<svg width="92" height="35" viewBox="0 0 92 35" fill="none" xmlns="http://www.w3.org/2000/svg">
<path d="M5.56705 8.64031L16.639 2.24031C17.3644 1.81364 18.0044 1.76031 18.559 2.08031C19.135 2.40031 19.423 2.98698 19.423 3.84031V24.3203L16.639 25.9203V5.44031L12.479 7.84031V28.3203L9.69505 29.9203V9.44031L5.56705 11.8403V32.3203L2.78305 33.9203V13.4403C2.78305 12.8643 2.91105 12.267 3.16705 11.6483C3.42305 11.0083 3.76438 10.4216 4.19105 9.88831C4.61771 9.33364 5.07638 8.91764 5.56705 8.64031ZM16.639 5.44031V25.9203L13.855 24.3203V3.84031L16.639 5.44031ZM9.69505 9.44031V29.9203L6.94305 28.3203V7.84031L9.69505 9.44031ZM18.559 2.08031C18.0044 1.76031 17.3644 1.81364 16.639 2.24031L5.56705 8.64031C5.07638 8.91764 4.61771 9.33364 4.19105 9.88831C3.76438 10.4216 3.42305 11.0083 3.16705 11.6483C2.91105 12.267 2.78305 12.8643 2.78305 13.4403V33.9203L-0.000953078 32.3203V11.8403C-0.000953078 11.2643 0.127047 10.667 0.383047 10.0483C0.639047 9.40831 0.98038 8.82165 1.40705 8.28831C1.83371 7.73365 2.29238 7.31765 2.78305 7.04031L13.855 0.64031C14.6017 0.213645 15.2524 0.160312 15.807 0.48031L18.559 2.08031ZM24.9705 14.7203C24.9705 14.1443 25.0985 13.547 25.3545 12.9283C25.6105 12.2883 25.9519 11.7016 26.3785 11.1683C26.8052 10.6136 27.2639 10.1976 27.7545 9.92031L37.4505 4.32031V7.52031L27.7545 13.1203V20.1603L37.4505 14.5603V17.7603L27.7545 23.3603V30.4003L37.4505 24.8003V28.0003L27.7545 33.6003C27.0079 34.027 26.3572 34.0803 25.8025 33.7603C25.2479 33.4403 24.9705 32.8536 24.9705 32.0003V14.7203ZM37.4505 24.8003L27.7545 30.4003L24.9705 28.8003L34.6665 23.2003L37.4505 24.8003ZM37.4505 14.5603L27.7545 20.1603L24.9705 18.5603L34.6665 12.9603L37.4505 14.5603ZM37.4505 4.32031L27.7545 9.92031C27.2639 10.1976 26.8052 10.6136 26.3785 11.1683C25.9519 11.7016 25.6105 12.2883 25.3545 12.9283C25.0985 13.547 24.9705 14.1443 24.9705 14.7203V32.0003C24.9705 32.8536 25.2479 33.4403 25.8025 33.7603L23.0185 32.1603C22.4639 31.8403 22.1865 31.2536 22.1865 30.4003V13.1203C22.1865 12.5443 22.3145 11.947 22.5705 11.3283C22.8265 10.6883 23.1679 10.1016 23.5945 9.56831C24.0212 9.01364 24.4799 8.59764 24.9705 8.32031L34.6665 2.72031L37.4505 4.32031ZM45.7858 8.64031L52.6978 4.64031C53.4231 4.21364 54.0631 4.16031 54.6178 4.48031C55.1938 4.80031 55.4818 5.38698 55.4818 6.24031V9.44031L52.6978 11.0403V7.84031L45.7858 11.8403V30.4003L52.6978 26.4003V23.2003L55.4818 21.6003V24.8003C55.4818 25.355 55.3431 25.9523 55.0658 26.5923C54.8098 27.2323 54.4685 27.8296 54.0418 28.3843C53.6365 28.9176 53.1885 29.323 52.6978 29.6003L45.7858 33.6003C45.0391 34.027 44.3885 34.0803 43.8338 33.7603C43.2791 33.4403 43.0018 32.8536 43.0018 32.0003V13.4403C43.0018 12.8643 43.1298 12.267 43.3858 11.6483C43.6418 11.0083 43.9831 10.4216 44.4098 9.88831C44.8365 9.33364 45.2951 8.91764 45.7858 8.64031ZM55.4818 21.6003L52.6978 23.2003L49.9138 21.6003L52.6978 20.0003L55.4818 21.6003ZM52.6978 23.2003V26.4003L49.9138 24.8003V21.6003L52.6978 23.2003ZM52.6978 26.4003L45.7858 30.4003L43.0018 28.8003L49.9138 24.8003L52.6978 26.4003ZM52.6978 7.84031V11.0403L49.9138 9.44031V6.24031L52.6978 7.84031ZM54.6498 4.48031C54.0738 4.16031 53.4231 4.21364 52.6978 4.64031L45.7858 8.64031C45.2951 8.91764 44.8365 9.33364 44.4098 9.88831C43.9831 10.4216 43.6418 11.0083 43.3858 11.6483C43.1298 12.267 43.0018 12.8643 43.0018 13.4403V32.0003C43.0018 32.8536 43.2791 33.4403 43.8338 33.7603L41.0498 32.1603C40.4951 31.8403 40.2178 31.2536 40.2178 30.4003V11.8403C40.2178 11.2643 40.3458 10.667 40.6018 10.0483C40.8578 9.40831 41.1991 8.82165 41.6258 8.28831C42.0525 7.73365 42.5111 7.31765 43.0018 7.04031L49.9138 3.04031C50.6605 2.61364 51.3111 2.56031 51.8658 2.88031L54.6498 4.48031ZM63.817 9.92031V19.5203L70.729 15.5203V5.92031L73.513 4.32031V26.7203L70.729 28.3203V18.7203L63.817 22.7203V32.3203L61.033 33.9203V11.5203L63.817 9.92031ZM70.729 18.7203V28.3203L67.945 26.7203V17.1203L70.729 18.7203ZM73.513 4.32031L70.729 5.92031L67.945 4.32031L70.729 2.72031L73.513 4.32031ZM70.729 5.92031V15.5203L67.945 13.9203V4.32031L70.729 5.92031ZM70.729 15.5203L63.817 19.5203L61.033 17.9203L67.945 13.9203L70.729 15.5203ZM63.817 9.92031L61.033 11.5203L58.249 9.92031L61.033 8.32031L63.817 9.92031ZM61.033 11.5203V33.9203L58.249 32.3203V9.92031L61.033 11.5203ZM88.7603 29.6003L81.8483 33.6003C81.1016 34.027 80.451 34.0803 79.8963 33.7603C79.3416 33.4403 79.0643 32.8536 79.0643 32.0003V11.5203L81.8483 9.92031V30.4003L88.7603 26.4003V5.92031L91.5443 4.32031V24.8003C91.5443 25.355 91.4056 25.9523 91.1283 26.5923C90.8723 27.2323 90.531 27.8296 90.1043 28.3843C89.699 28.9176 89.251 29.323 88.7603 29.6003ZM91.5443 4.32031L88.7603 5.92031L85.9763 4.32031L88.7603 2.72031L91.5443 4.32031ZM88.7603 5.92031V26.4003L85.9763 24.8003V4.32031L88.7603 5.92031ZM88.7603 26.4003L81.8483 30.4003L79.0643 28.8003L85.9763 24.8003L88.7603 26.4003ZM81.8483 9.92031L79.0643 11.5203L76.2803 9.92031L79.0643 8.32031L81.8483 9.92031ZM79.0643 11.5203V32.0003C79.0643 32.8536 79.3416 33.4403 79.8963 33.7603L77.1123 32.1603C76.5576 31.8403 76.2803 31.2536 76.2803 30.4003V9.92031L79.0643 11.5203Z" fill="#FF5531"/>
</svg>
