<svg width="36" height="48" viewBox="0 0 36 48" fill="none" xmlns="http://www.w3.org/2000/svg">
<g clip-path="url(#clip0_2576_13227)">
<g filter="url(#filter0_f_2576_13227)">
<ellipse cx="18" cy="43.5" rx="6" ry="3" fill="black" fill-opacity="0.12"/>
</g>
<mask id="path-2-outside-1_2576_13227" maskUnits="userSpaceOnUse" x="1" y="1" width="34" height="43" fill="black">
<rect fill="white" x="1" y="1" width="34" height="43"/>
<path d="M18 3C26.2843 3 33 9.71573 33 18C33 22.9365 30.6148 27.3153 26.9346 30.0488C24.1082 32.1736 20.0785 35.539 19.1572 40.9795C19.0603 41.5516 18.5802 41.9951 18 41.9951C17.4198 41.9951 16.9397 41.5516 16.8428 40.9795C15.9214 35.5386 11.8909 32.1735 9.06445 30.0488C5.38459 27.3153 3 22.9362 3 18C3 9.71573 9.71573 3 18 3Z"/>
</mask>
<path d="M18 3C26.2843 3 33 9.71573 33 18C33 22.9365 30.6148 27.3153 26.9346 30.0488C24.1082 32.1736 20.0785 35.539 19.1572 40.9795C19.0603 41.5516 18.5802 41.9951 18 41.9951C17.4198 41.9951 16.9397 41.5516 16.8428 40.9795C15.9214 35.5386 11.8909 32.1735 9.06445 30.0488C5.38459 27.3153 3 22.9362 3 18C3 9.71573 9.71573 3 18 3Z" fill="#EA352B"/>
<path d="M26.9346 30.0488L26.0402 28.8446L26.0332 28.8498L26.9346 30.0488ZM19.1572 40.9795L20.6361 41.2301L20.6362 41.2299L19.1572 40.9795ZM16.8428 40.9795L15.3638 41.2299L15.3639 41.2301L16.8428 40.9795ZM9.06445 30.0488L9.9658 28.8498L9.95892 28.8447L9.06445 30.0488ZM18 3V4.5C25.4558 4.5 31.5 10.5442 31.5 18H33H34.5C34.5 8.8873 27.1127 1.5 18 1.5V3ZM33 18H31.5C31.5 22.4417 29.356 26.3818 26.0402 28.8447L26.9346 30.0488L27.829 31.253C31.8736 28.2488 34.5 23.4314 34.5 18H33ZM26.9346 30.0488L26.0332 28.8498C23.1902 30.9871 18.7058 34.6615 17.6783 40.729L19.1572 40.9795L20.6362 41.2299C21.4513 36.4166 25.0262 33.3601 27.8359 31.2478L26.9346 30.0488ZM19.1572 40.9795L17.6783 40.7289C17.6872 40.6766 17.714 40.6247 17.7618 40.582C17.8131 40.5364 17.8975 40.4951 18 40.4951V41.9951V43.4951C19.3802 43.4951 20.4287 42.4542 20.6361 41.2301L19.1572 40.9795ZM18 41.9951V40.4951C18.1025 40.4951 18.1869 40.5364 18.2382 40.582C18.286 40.6247 18.3128 40.6766 18.3217 40.7289L16.8428 40.9795L15.3639 41.2301C15.5713 42.4542 16.6198 43.4951 18 43.4951V41.9951ZM16.8428 40.9795L18.3217 40.729C17.2941 34.661 12.8086 30.9869 9.96579 28.8498L9.06445 30.0488L8.16312 31.2478C10.9731 33.3602 14.5487 36.4163 15.3638 41.2299L16.8428 40.9795ZM9.06445 30.0488L9.95892 28.8447C6.64355 26.3819 4.5 22.4415 4.5 18H3H1.5C1.5 23.431 4.12563 28.2487 8.16999 31.253L9.06445 30.0488ZM3 18H4.5C4.5 10.5442 10.5442 4.5 18 4.5V3V1.5C8.8873 1.5 1.5 8.8873 1.5 18H3Z" fill="url(#paint0_linear_2576_13227)" mask="url(#path-2-outside-1_2576_13227)"/>
</g>
<defs>
<filter id="filter0_f_2576_13227" x="9" y="37.5" width="18" height="12" filterUnits="userSpaceOnUse" color-interpolation-filters="sRGB">
<feFlood flood-opacity="0" result="BackgroundImageFix"/>
<feBlend mode="normal" in="SourceGraphic" in2="BackgroundImageFix" result="shape"/>
<feGaussianBlur stdDeviation="1.5" result="effect1_foregroundBlur_2576_13227"/>
</filter>
<linearGradient id="paint0_linear_2576_13227" x1="18" y1="3" x2="18" y2="41.9951" gradientUnits="userSpaceOnUse">
<stop stop-color="white"/>
<stop offset="1" stop-color="white" stop-opacity="0.35"/>
</linearGradient>
<clipPath id="clip0_2576_13227">
<rect width="36" height="48" fill="white"/>
</clipPath>
</defs>
</svg>
