<svg preserveAspectRatio="none" width="100%" height="100%" overflow="visible" style="display: block;" viewBox="0 0 24 24" fill="none" xmlns="http://www.w3.org/2000/svg">
<g id="visibility_off">
<mask id="mask0_66_45580" style="mask-type:alpha" maskUnits="userSpaceOnUse" x="0" y="0" width="24" height="24">
<rect id="Bounding box" width="24" height="24" fill="var(--fill-0, #D9D9D9)"/>
</mask>
<g mask="url(#mask0_66_45580)">
<path id="visibility_off_2" d="M19.8 22.6L15.6 18.45C15.0167 18.6333 14.4292 18.7708 13.8375 18.8625C13.2458 18.9542 12.6333 19 12 19C9.48333 19 7.24167 18.3042 5.275 16.9125C3.30833 15.5208 1.88333 13.7167 1 11.5C1.35 10.6167 1.79167 9.79583 2.325 9.0375C2.85833 8.27917 3.46667 7.6 4.15 7L1.4 4.2L2.8 2.8L21.2 21.2L19.8 22.6ZM12 16C12.1833 16 12.3542 15.9917 12.5125 15.975C12.6708 15.9583 12.8417 15.925 13.025 15.875L7.625 10.475C7.575 10.6583 7.54167 10.8292 7.525 10.9875C7.50833 11.1458 7.5 11.3167 7.5 11.5C7.5 12.75 7.9375 13.8125 8.8125 14.6875C9.6875 15.5625 10.75 16 12 16ZM19.3 16.45L16.125 13.3C16.2417 13.0167 16.3333 12.7292 16.4 12.4375C16.4667 12.1458 16.5 11.8333 16.5 11.5C16.5 10.25 16.0625 9.1875 15.1875 8.3125C14.3125 7.4375 13.25 7 12 7C11.6667 7 11.3542 7.03333 11.0625 7.1C10.7708 7.16667 10.4833 7.26667 10.2 7.4L7.65 4.85C8.33333 4.56667 9.03333 4.35417 9.75 4.2125C10.4667 4.07083 11.2167 4 12 4C14.5167 4 16.7583 4.69583 18.725 6.0875C20.6917 7.47917 22.1167 9.28333 23 11.5C22.6167 12.4833 22.1125 13.3958 21.4875 14.2375C20.8625 15.0792 20.1333 15.8167 19.3 16.45ZM14.675 11.85L11.675 8.85C12.1417 8.76667 12.5708 8.80417 12.9625 8.9625C13.3542 9.12083 13.6917 9.35 13.975 9.65C14.2583 9.95 14.4625 10.2958 14.5875 10.6875C14.7125 11.0792 14.7417 11.4667 14.675 11.85Z" fill="var(--fill-0, #BDC1C6)"/>
</g>
</g>
</svg>
